<svg xmlns="http://www.w3.org/2000/svg" xmlns:xlink="http://www.w3.org/1999/xlink" width="100" zoomAndPan="magnify" viewBox="0 0 75 74.999997" height="100" preserveAspectRatio="xMidYMid meet" version="1.0"><path fill="#32a5c3" d="M 0.890625 18.328125 C 1.597656 8.976562 8.976562 1.597656 18.328125 0.890625 C 24.640625 0.410156 31.746094 0 37.5 0 C 43.253906 0 50.359375 0.410156 56.671875 0.890625 C 66.023438 1.597656 73.402344 8.976562 74.109375 18.328125 C 74.589844 24.640625 75 31.746094 75 37.5 C 75 43.253906 74.589844 50.359375 74.109375 56.671875 C 73.402344 66.023438 66.023438 73.402344 56.671875 74.109375 C 50.359375 74.589844 43.253906 75 37.5 75 C 31.746094 75 24.640625 74.589844 18.328125 74.109375 C 8.976562 73.402344 1.597656 66.023438 0.890625 56.671875 C 0.410156 50.359375 0 43.253906 0 37.5 C 0 31.746094 0.410156 24.640625 0.890625 18.328125 Z M 0.890625 18.328125 " fill-opacity="1" fill-rule="nonzero"/><path fill="#ffffff" d="M 17.949219 17.867188 C 18.375 17.476562 19 17.386719 19.519531 17.648438 L 39.984375 27.878906 C 40.671875 28.222656 40.953125 29.0625 40.609375 29.753906 C 40.265625 30.441406 39.425781 30.71875 38.738281 30.375 L 21.554688 21.785156 L 27.632812 36.980469 C 27.765625 37.316406 27.765625 37.683594 27.632812 38.019531 L 21.554688 53.214844 L 52.984375 37.5 L 46.179688 34.097656 C 45.488281 33.753906 45.210938 32.914062 45.554688 32.226562 C 45.898438 31.535156 46.738281 31.257812 47.425781 31.601562 L 56.730469 36.253906 C 57.203125 36.488281 57.5 36.972656 57.5 37.5 C 57.5 38.027344 57.203125 38.511719 56.730469 38.746094 L 19.519531 57.351562 C 19 57.613281 18.375 57.523438 17.949219 57.132812 C 17.523438 56.738281 17.382812 56.125 17.601562 55.585938 L 24.835938 37.5 L 17.601562 19.414062 C 17.382812 18.875 17.523438 18.261719 17.949219 17.867188 Z M 17.949219 17.867188 " fill-opacity="1" fill-rule="evenodd"/><path fill="#ffffff" d="M 24.941406 37.5 C 24.941406 36.730469 25.566406 36.105469 26.335938 36.105469 L 33.777344 36.105469 C 34.550781 36.105469 35.175781 36.730469 35.175781 37.5 C 35.175781 38.269531 34.550781 38.894531 33.777344 38.894531 L 26.335938 38.894531 C 25.566406 38.894531 24.941406 38.269531 24.941406 37.5 Z M 24.941406 37.5 " fill-opacity="1" fill-rule="evenodd"/></svg>