<svg xmlns="http://www.w3.org/2000/svg" xmlns:xlink="http://www.w3.org/1999/xlink" width="100" zoomAndPan="magnify" viewBox="0 0 75 74.999997" height="100" preserveAspectRatio="xMidYMid meet" version="1.0"><defs><clipPath id="8b9ebb10ef"><path d="M 1.53125 1.53125 L 73.53125 1.53125 L 73.53125 73.53125 L 1.53125 73.53125 Z M 1.53125 1.53125 " clip-rule="nonzero"/></clipPath></defs><g clip-path="url(#8b9ebb10ef)"><path fill="#000000" d="M 2.386719 19.128906 C 3.066406 10.148438 10.148438 3.066406 19.128906 2.386719 C 25.1875 1.929688 32.007812 1.53125 37.53125 1.53125 C 43.058594 1.53125 49.878906 1.929688 55.9375 2.386719 C 64.914062 3.066406 72 10.148438 72.679688 19.128906 C 73.136719 25.1875 73.53125 32.007812 73.53125 37.53125 C 73.53125 43.058594 73.136719 49.878906 72.679688 55.9375 C 72 64.914062 64.914062 72 55.9375 72.679688 C 49.878906 73.136719 43.058594 73.53125 37.53125 73.53125 C 32.007812 73.53125 25.1875 73.136719 19.128906 72.679688 C 10.148438 72 3.066406 64.914062 2.386719 55.9375 C 1.929688 49.878906 1.53125 43.058594 1.53125 37.53125 C 1.53125 32.007812 1.929688 25.1875 2.386719 19.128906 Z M 2.386719 19.128906 " fill-opacity="1" fill-rule="nonzero"/></g><path fill="#ffffff" d="M 48.714844 18.746094 C 49.265625 18.195312 50.152344 18.195312 50.703125 18.746094 L 56.320312 24.363281 C 56.871094 24.914062 56.871094 25.800781 56.320312 26.351562 L 39.464844 43.210938 C 39.246094 43.425781 38.96875 43.5625 38.667969 43.605469 L 32.113281 44.542969 C 31.675781 44.605469 31.234375 44.457031 30.921875 44.144531 C 30.609375 43.832031 30.460938 43.390625 30.523438 42.953125 L 31.460938 36.398438 C 31.503906 36.097656 31.640625 35.816406 31.855469 35.601562 Z M 34.175781 37.257812 L 33.570312 41.496094 L 37.808594 40.890625 L 53.339844 25.355469 L 49.707031 21.726562 Z M 34.175781 37.257812 " fill-opacity="1" fill-rule="evenodd"/><path fill="#ffffff" d="M 24.421875 26.761719 C 22.609375 26.761719 21.144531 28.230469 21.144531 30.039062 L 21.144531 31.914062 C 21.144531 32.6875 20.515625 33.316406 19.738281 33.316406 C 18.960938 33.316406 18.332031 32.6875 18.332031 31.914062 L 18.332031 30.039062 C 18.332031 26.679688 21.058594 23.953125 24.421875 23.953125 L 38.46875 23.953125 C 39.246094 23.953125 39.875 24.582031 39.875 25.355469 C 39.875 26.132812 39.246094 26.761719 38.46875 26.761719 Z M 49.707031 35.191406 C 50.484375 35.191406 51.113281 35.820312 51.113281 36.597656 L 51.113281 50.644531 C 51.113281 54.007812 48.386719 56.734375 45.027344 56.734375 L 24.421875 56.734375 C 21.058594 56.734375 18.332031 54.007812 18.332031 50.644531 L 18.332031 39.40625 C 18.332031 38.628906 18.960938 38 19.738281 38 C 20.515625 38 21.144531 38.628906 21.144531 39.40625 L 21.144531 50.644531 C 21.144531 52.457031 22.609375 53.921875 24.421875 53.921875 L 45.027344 53.921875 C 46.835938 53.921875 48.304688 52.457031 48.304688 50.644531 L 48.304688 36.597656 C 48.304688 35.820312 48.933594 35.191406 49.707031 35.191406 Z M 49.707031 35.191406 " fill-opacity="1" fill-rule="evenodd"/></svg>