<svg xmlns="http://www.w3.org/2000/svg" xmlns:xlink="http://www.w3.org/1999/xlink" width="100" zoomAndPan="magnify" viewBox="0 0 75 74.999997" height="100" preserveAspectRatio="xMidYMid meet" version="1.0"><defs><clipPath id="8c5d558f84"><path d="M 1.347656 1.347656 L 73.347656 1.347656 L 73.347656 73.347656 L 1.347656 73.347656 Z M 1.347656 1.347656 " clip-rule="nonzero"/></clipPath></defs><g clip-path="url(#8c5d558f84)"><path fill="#000000" d="M 37.347656 73.347656 C 36.167969 73.347656 34.992188 73.289062 33.820312 73.175781 C 32.648438 73.058594 31.480469 72.886719 30.324219 72.65625 C 29.167969 72.425781 28.027344 72.140625 26.898438 71.796875 C 25.769531 71.457031 24.660156 71.058594 23.570312 70.609375 C 22.484375 70.15625 21.417969 69.652344 20.378906 69.097656 C 19.339844 68.542969 18.328125 67.9375 17.347656 67.28125 C 16.367188 66.625 15.421875 65.925781 14.511719 65.175781 C 13.597656 64.429688 12.726562 63.636719 11.894531 62.804688 C 11.058594 61.96875 10.269531 61.097656 9.519531 60.1875 C 8.773438 59.273438 8.070312 58.328125 7.414062 57.347656 C 6.761719 56.367188 6.15625 55.359375 5.597656 54.320312 C 5.042969 53.277344 4.539062 52.214844 4.089844 51.125 C 3.636719 50.035156 3.242188 48.925781 2.898438 47.796875 C 2.554688 46.671875 2.269531 45.527344 2.039062 44.371094 C 1.808594 43.214844 1.636719 42.050781 1.523438 40.878906 C 1.40625 39.703125 1.347656 38.527344 1.347656 37.347656 C 1.347656 36.167969 1.40625 34.992188 1.523438 33.820312 C 1.636719 32.648438 1.808594 31.480469 2.039062 30.324219 C 2.269531 29.167969 2.554688 28.027344 2.898438 26.898438 C 3.242188 25.769531 3.636719 24.660156 4.089844 23.570312 C 4.539062 22.484375 5.042969 21.417969 5.597656 20.378906 C 6.15625 19.339844 6.761719 18.328125 7.414062 17.347656 C 8.070312 16.367188 8.773438 15.421875 9.519531 14.511719 C 10.269531 13.597656 11.058594 12.726562 11.894531 11.894531 C 12.726562 11.058594 13.597656 10.269531 14.511719 9.519531 C 15.421875 8.773438 16.367188 8.070312 17.347656 7.414062 C 18.328125 6.761719 19.339844 6.15625 20.378906 5.597656 C 21.417969 5.042969 22.484375 4.539062 23.570312 4.089844 C 24.660156 3.636719 25.769531 3.242188 26.898438 2.898438 C 28.027344 2.554688 29.167969 2.269531 30.324219 2.039062 C 31.480469 1.808594 32.648438 1.636719 33.820312 1.523438 C 34.992188 1.40625 36.167969 1.347656 37.347656 1.347656 C 38.527344 1.347656 39.703125 1.40625 40.878906 1.523438 C 42.050781 1.636719 43.214844 1.808594 44.371094 2.039062 C 45.527344 2.269531 46.671875 2.554688 47.796875 2.898438 C 48.925781 3.242188 50.035156 3.636719 51.125 4.089844 C 52.214844 4.539062 53.277344 5.042969 54.320312 5.597656 C 55.359375 6.15625 56.367188 6.761719 57.347656 7.414062 C 58.328125 8.070312 59.273438 8.773438 60.1875 9.519531 C 61.097656 10.269531 61.96875 11.058594 62.804688 11.894531 C 63.636719 12.726562 64.429688 13.597656 65.175781 14.511719 C 65.925781 15.421875 66.625 16.367188 67.28125 17.347656 C 67.9375 18.328125 68.542969 19.339844 69.097656 20.378906 C 69.652344 21.417969 70.15625 22.484375 70.609375 23.570312 C 71.058594 24.660156 71.457031 25.769531 71.796875 26.898438 C 72.140625 28.027344 72.425781 29.167969 72.65625 30.324219 C 72.886719 31.480469 73.058594 32.648438 73.175781 33.820312 C 73.289062 34.992188 73.347656 36.167969 73.347656 37.347656 C 73.347656 38.527344 73.289062 39.703125 73.175781 40.878906 C 73.058594 42.050781 72.886719 43.214844 72.65625 44.371094 C 72.425781 45.527344 72.140625 46.671875 71.796875 47.796875 C 71.457031 48.925781 71.058594 50.035156 70.609375 51.125 C 70.15625 52.214844 69.652344 53.277344 69.097656 54.320312 C 68.542969 55.359375 67.9375 56.367188 67.28125 57.347656 C 66.625 58.328125 65.925781 59.273438 65.175781 60.1875 C 64.429688 61.097656 63.636719 61.96875 62.804688 62.804688 C 61.96875 63.636719 61.097656 64.429688 60.1875 65.175781 C 59.273438 65.925781 58.328125 66.625 57.347656 67.28125 C 56.367188 67.9375 55.359375 68.542969 54.320312 69.097656 C 53.277344 69.652344 52.214844 70.15625 51.125 70.609375 C 50.035156 71.058594 48.925781 71.457031 47.796875 71.796875 C 46.671875 72.140625 45.527344 72.425781 44.371094 72.65625 C 43.214844 72.886719 42.050781 73.058594 40.878906 73.175781 C 39.703125 73.289062 38.527344 73.347656 37.347656 73.347656 Z M 37.347656 5.847656 C 36.316406 5.847656 35.289062 5.898438 34.261719 6 C 33.234375 6.101562 32.214844 6.253906 31.203125 6.453125 C 30.191406 6.65625 29.191406 6.90625 28.203125 7.203125 C 27.21875 7.503906 26.246094 7.851562 25.292969 8.246094 C 24.339844 8.640625 23.410156 9.082031 22.5 9.566406 C 21.589844 10.054688 20.707031 10.585938 19.847656 11.15625 C 18.992188 11.730469 18.164062 12.34375 17.363281 13 C 16.566406 13.652344 15.804688 14.34375 15.074219 15.074219 C 14.34375 15.804688 13.652344 16.566406 13 17.363281 C 12.34375 18.164062 11.730469 18.992188 11.15625 19.847656 C 10.585938 20.707031 10.054688 21.589844 9.566406 22.5 C 9.082031 23.410156 8.640625 24.339844 8.246094 25.292969 C 7.851562 26.246094 7.503906 27.21875 7.203125 28.203125 C 6.90625 29.191406 6.65625 30.191406 6.453125 31.203125 C 6.253906 32.214844 6.101562 33.234375 6 34.261719 C 5.898438 35.289062 5.847656 36.316406 5.847656 37.347656 C 5.847656 38.378906 5.898438 39.410156 6 40.4375 C 6.101562 41.460938 6.253906 42.480469 6.453125 43.492188 C 6.65625 44.503906 6.90625 45.503906 7.203125 46.492188 C 7.503906 47.480469 7.851562 48.449219 8.246094 49.402344 C 8.640625 50.355469 9.082031 51.289062 9.566406 52.199219 C 10.054688 53.105469 10.585938 53.992188 11.15625 54.847656 C 11.730469 55.707031 12.34375 56.535156 13 57.332031 C 13.652344 58.128906 14.34375 58.894531 15.074219 59.621094 C 15.804688 60.351562 16.566406 61.042969 17.363281 61.699219 C 18.164062 62.351562 18.992188 62.964844 19.847656 63.539062 C 20.707031 64.113281 21.589844 64.644531 22.5 65.128906 C 23.410156 65.617188 24.339844 66.054688 25.292969 66.449219 C 26.246094 66.84375 27.21875 67.191406 28.203125 67.492188 C 29.191406 67.792969 30.191406 68.042969 31.203125 68.242188 C 32.214844 68.445312 33.234375 68.597656 34.261719 68.695312 C 35.289062 68.796875 36.316406 68.847656 37.347656 68.847656 C 38.378906 68.847656 39.410156 68.796875 40.4375 68.695312 C 41.460938 68.597656 42.480469 68.445312 43.492188 68.242188 C 44.503906 68.042969 45.503906 67.792969 46.492188 67.492188 C 47.480469 67.191406 48.449219 66.84375 49.402344 66.449219 C 50.355469 66.054688 51.289062 65.617188 52.199219 65.128906 C 53.105469 64.644531 53.992188 64.113281 54.847656 63.539062 C 55.707031 62.964844 56.535156 62.351562 57.332031 61.699219 C 58.128906 61.042969 58.894531 60.351562 59.621094 59.621094 C 60.351562 58.894531 61.042969 58.128906 61.699219 57.332031 C 62.351562 56.535156 62.964844 55.707031 63.539062 54.847656 C 64.113281 53.992188 64.644531 53.105469 65.128906 52.199219 C 65.617188 51.289062 66.054688 50.355469 66.449219 49.402344 C 66.84375 48.449219 67.191406 47.480469 67.492188 46.492188 C 67.792969 45.503906 68.042969 44.503906 68.242188 43.492188 C 68.445312 42.480469 68.597656 41.460938 68.695312 40.4375 C 68.796875 39.410156 68.847656 38.378906 68.847656 37.347656 C 68.847656 36.316406 68.796875 35.289062 68.695312 34.261719 C 68.597656 33.234375 68.445312 32.214844 68.242188 31.203125 C 68.042969 30.191406 67.792969 29.191406 67.492188 28.203125 C 67.191406 27.21875 66.84375 26.246094 66.449219 25.292969 C 66.054688 24.339844 65.617188 23.410156 65.128906 22.5 C 64.644531 21.589844 64.113281 20.707031 63.539062 19.847656 C 62.964844 18.992188 62.351562 18.164062 61.699219 17.363281 C 61.042969 16.566406 60.351562 15.804688 59.621094 15.074219 C 58.894531 14.34375 58.128906 13.652344 57.332031 13 C 56.535156 12.34375 55.707031 11.730469 54.847656 11.15625 C 53.992188 10.585938 53.105469 10.054688 52.199219 9.566406 C 51.289062 9.082031 50.355469 8.640625 49.402344 8.246094 C 48.449219 7.851562 47.480469 7.503906 46.492188 7.203125 C 45.503906 6.90625 44.503906 6.65625 43.492188 6.453125 C 42.480469 6.253906 41.460938 6.101562 40.4375 6 C 39.410156 5.898438 38.378906 5.847656 37.347656 5.847656 Z M 37.347656 5.847656 " fill-opacity="1" fill-rule="nonzero"/></g><path fill="#000000" d="M 19.347656 32.847656 C 18.988281 32.851562 18.652344 32.769531 18.335938 32.601562 C 18.070312 32.464844 17.84375 32.285156 17.648438 32.058594 C 17.453125 31.835938 17.3125 31.582031 17.21875 31.296875 C 17.125 31.015625 17.089844 30.726562 17.113281 30.429688 C 17.136719 30.132812 17.210938 29.851562 17.347656 29.585938 C 17.507812 29.265625 17.691406 28.957031 17.890625 28.660156 C 18.09375 28.363281 18.3125 28.082031 18.546875 27.8125 C 18.785156 27.542969 19.039062 27.289062 19.308594 27.050781 C 19.578125 26.816406 19.859375 26.597656 20.15625 26.394531 C 20.457031 26.195312 20.765625 26.011719 21.085938 25.851562 C 21.40625 25.691406 21.734375 25.550781 22.070312 25.429688 C 22.410156 25.308594 22.753906 25.210938 23.105469 25.136719 C 23.457031 25.058594 23.808594 25.007812 24.167969 24.976562 C 24.523438 24.945312 24.882812 24.9375 25.242188 24.953125 C 25.601562 24.964844 25.957031 25.003906 26.308594 25.0625 C 26.664062 25.125 27.011719 25.207031 27.355469 25.308594 C 27.699219 25.414062 28.035156 25.539062 28.359375 25.6875 C 28.6875 25.832031 29.003906 26 29.3125 26.1875 C 29.617188 26.375 29.910156 26.582031 30.191406 26.804688 C 30.46875 27.03125 30.734375 27.273438 30.984375 27.53125 C 31.230469 27.789062 31.464844 28.0625 31.679688 28.347656 L 32.398438 29.292969 C 32.578125 29.53125 32.703125 29.796875 32.777344 30.085938 C 32.851562 30.375 32.867188 30.667969 32.824219 30.960938 C 32.785156 31.257812 32.6875 31.53125 32.535156 31.789062 C 32.382812 32.046875 32.1875 32.265625 31.949219 32.445312 C 31.710938 32.621094 31.445312 32.75 31.15625 32.824219 C 30.867188 32.898438 30.574219 32.914062 30.28125 32.871094 C 29.984375 32.828125 29.707031 32.730469 29.453125 32.578125 C 29.195312 32.425781 28.976562 32.230469 28.796875 31.992188 L 28.078125 31.046875 C 27.671875 30.488281 27.152344 30.070312 26.523438 29.789062 C 25.890625 29.507812 25.234375 29.402344 24.546875 29.472656 C 23.851562 29.535156 23.21875 29.769531 22.648438 30.171875 C 22.078125 30.574219 21.644531 31.089844 21.351562 31.722656 C 21.144531 32.082031 20.863281 32.359375 20.503906 32.5625 C 20.144531 32.761719 19.761719 32.859375 19.347656 32.847656 Z M 19.347656 32.847656 " fill-opacity="1" fill-rule="nonzero"/><path fill="#000000" d="M 55.347656 32.847656 C 54.925781 32.847656 54.53125 32.734375 54.171875 32.511719 C 53.8125 32.289062 53.535156 31.988281 53.347656 31.609375 C 53.050781 30.976562 52.621094 30.460938 52.050781 30.058594 C 51.480469 29.65625 50.847656 29.425781 50.152344 29.359375 C 49.464844 29.289062 48.804688 29.394531 48.175781 29.675781 C 47.542969 29.957031 47.023438 30.378906 46.617188 30.9375 L 45.898438 31.882812 C 45.71875 32.121094 45.5 32.316406 45.246094 32.46875 C 44.988281 32.621094 44.710938 32.714844 44.417969 32.757812 C 44.121094 32.800781 43.828125 32.785156 43.539062 32.710938 C 43.25 32.636719 42.988281 32.511719 42.75 32.332031 C 42.511719 32.152344 42.316406 31.933594 42.164062 31.675781 C 42.011719 31.421875 41.914062 31.144531 41.871094 30.847656 C 41.828125 30.554688 41.84375 30.261719 41.917969 29.972656 C 41.992188 29.683594 42.121094 29.417969 42.296875 29.179688 L 43.019531 28.234375 C 43.234375 27.949219 43.464844 27.675781 43.714844 27.417969 C 43.964844 27.160156 44.230469 26.921875 44.511719 26.695312 C 44.792969 26.472656 45.085938 26.269531 45.394531 26.082031 C 45.699219 25.894531 46.015625 25.726562 46.34375 25.582031 C 46.671875 25.4375 47.007812 25.3125 47.351562 25.207031 C 47.695312 25.105469 48.042969 25.023438 48.398438 24.964844 C 48.753906 24.90625 49.109375 24.871094 49.46875 24.855469 C 49.828125 24.84375 50.183594 24.851562 50.542969 24.882812 C 50.898438 24.914062 51.253906 24.96875 51.605469 25.046875 C 51.953125 25.125 52.300781 25.222656 52.636719 25.34375 C 52.976562 25.464844 53.304688 25.605469 53.625 25.769531 C 53.945312 25.933594 54.253906 26.113281 54.546875 26.316406 C 54.84375 26.519531 55.128906 26.738281 55.398438 26.976562 C 55.664062 27.214844 55.917969 27.46875 56.15625 27.738281 C 56.390625 28.007812 56.609375 28.292969 56.808594 28.589844 C 57.007812 28.886719 57.191406 29.199219 57.351562 29.519531 C 57.484375 29.785156 57.5625 30.066406 57.585938 30.363281 C 57.605469 30.660156 57.570312 30.949219 57.476562 31.230469 C 57.386719 31.511719 57.242188 31.765625 57.046875 31.992188 C 56.855469 32.21875 56.625 32.398438 56.359375 32.535156 C 56.050781 32.726562 55.714844 32.832031 55.347656 32.847656 Z M 55.347656 32.847656 " fill-opacity="1" fill-rule="nonzero"/><path fill="#000000" d="M 37.347656 55.214844 C 36 55.222656 34.675781 55.054688 33.371094 54.707031 C 32.066406 54.355469 30.835938 53.839844 29.671875 53.15625 C 28.507812 52.472656 27.457031 51.648438 26.519531 50.679688 C 25.582031 49.710938 24.789062 48.632812 24.140625 47.449219 C 23.992188 47.191406 23.898438 46.914062 23.859375 46.617188 C 23.820312 46.320312 23.839844 46.027344 23.917969 45.738281 C 23.996094 45.449219 24.128906 45.183594 24.308594 44.949219 C 24.492188 44.710938 24.714844 44.519531 24.972656 44.367188 C 25.234375 44.21875 25.511719 44.125 25.808594 44.085938 C 26.105469 44.046875 26.398438 44.066406 26.6875 44.144531 C 26.976562 44.222656 27.238281 44.355469 27.476562 44.539062 C 27.714844 44.71875 27.90625 44.941406 28.054688 45.199219 C 28.515625 46.03125 29.074219 46.785156 29.738281 47.464844 C 30.398438 48.144531 31.136719 48.726562 31.953125 49.207031 C 32.773438 49.691406 33.636719 50.054688 34.554688 50.304688 C 35.46875 50.554688 36.398438 50.679688 37.347656 50.679688 C 38.296875 50.679688 39.230469 50.554688 40.144531 50.304688 C 41.058594 50.054688 41.925781 49.691406 42.742188 49.207031 C 43.558594 48.726562 44.296875 48.144531 44.960938 47.464844 C 45.621094 46.785156 46.183594 46.03125 46.640625 45.199219 C 46.789062 44.941406 46.984375 44.71875 47.21875 44.539062 C 47.457031 44.355469 47.722656 44.222656 48.011719 44.144531 C 48.300781 44.066406 48.59375 44.046875 48.890625 44.085938 C 49.1875 44.125 49.464844 44.21875 49.722656 44.367188 C 49.984375 44.519531 50.203125 44.710938 50.386719 44.949219 C 50.570312 45.183594 50.699219 45.449219 50.777344 45.738281 C 50.855469 46.027344 50.875 46.320312 50.835938 46.617188 C 50.800781 46.914062 50.707031 47.191406 50.554688 47.449219 C 49.910156 48.632812 49.117188 49.710938 48.175781 50.679688 C 47.238281 51.648438 46.1875 52.472656 45.023438 53.15625 C 43.863281 53.839844 42.628906 54.355469 41.328125 54.707031 C 40.023438 55.054688 38.699219 55.222656 37.347656 55.214844 Z M 37.347656 55.214844 " fill-opacity="1" fill-rule="nonzero"/></svg>