<svg xmlns="http://www.w3.org/2000/svg" xmlns:xlink="http://www.w3.org/1999/xlink" width="750" zoomAndPan="magnify" viewBox="0 0 562.5 374.999991" height="500" preserveAspectRatio="xMidYMid meet" version="1.0"><defs><clipPath id="8143628e8a"><path d="M 61.148438 28.09375 L 501.398438 28.09375 L 501.398438 347 L 61.148438 347 Z M 61.148438 28.09375 " clip-rule="nonzero"/></clipPath></defs><g clip-path="url(#8143628e8a)"><path fill="#466982" d="M 470.695312 244.609375 L 470.695312 61.863281 C 470.695312 60.167969 469.324219 58.792969 467.628906 58.792969 L 94.921875 58.792969 C 93.226562 58.792969 91.855469 60.167969 91.855469 61.863281 L 91.855469 244.609375 C 91.855469 246.304688 93.226562 247.683594 94.921875 247.683594 L 289.347656 247.683594 C 289.792969 247.683594 290.226562 247.777344 290.632812 247.964844 L 400.355469 298.664062 C 402.386719 299.601562 404.707031 298.117188 404.707031 295.875 L 404.707031 250.753906 C 404.707031 249.058594 406.082031 247.683594 407.773438 247.683594 L 467.628906 247.683594 C 469.324219 247.683594 470.695312 246.304688 470.695312 244.609375 Z M 64.25 28.089844 L 498.300781 28.089844 C 499.996094 28.089844 501.367188 29.464844 501.367188 31.160156 L 501.367188 275.3125 C 501.367188 277.007812 499.996094 278.382812 498.300781 278.382812 L 438.449219 278.382812 C 436.753906 278.382812 435.378906 279.761719 435.378906 281.457031 L 435.378906 343.867188 C 435.378906 346.105469 433.058594 347.589844 431.027344 346.652344 L 283.894531 278.667969 C 283.492188 278.480469 283.054688 278.382812 282.609375 278.382812 L 64.25 278.382812 C 62.554688 278.382812 61.183594 277.007812 61.183594 275.3125 L 61.183594 31.160156 C 61.183594 29.464844 62.554688 28.089844 64.25 28.089844 Z M 157.84375 171.660156 L 157.84375 216.503906 C 157.84375 218.199219 156.46875 219.574219 154.773438 219.574219 L 130.234375 219.574219 C 128.542969 219.574219 127.167969 218.199219 127.167969 216.503906 L 127.167969 89.972656 C 127.167969 88.277344 128.542969 86.902344 130.234375 86.902344 L 154.773438 86.902344 C 156.46875 86.902344 157.84375 88.277344 157.84375 89.972656 L 157.84375 134.8125 C 157.84375 136.511719 159.214844 137.886719 160.910156 137.886719 L 401.640625 137.886719 C 403.332031 137.886719 404.707031 136.511719 404.707031 134.8125 L 404.707031 89.972656 C 404.707031 88.277344 406.082031 86.902344 407.773438 86.902344 L 432.3125 86.902344 C 434.007812 86.902344 435.378906 88.277344 435.378906 89.972656 L 435.378906 216.503906 C 435.378906 218.199219 434.007812 219.574219 432.3125 219.574219 L 407.773438 219.574219 C 406.082031 219.574219 404.707031 218.199219 404.707031 216.503906 L 404.707031 171.660156 C 404.707031 169.964844 403.332031 168.589844 401.640625 168.589844 L 160.910156 168.589844 C 159.214844 168.589844 157.84375 169.964844 157.84375 171.660156 " fill-opacity="1" fill-rule="nonzero"/></g></svg>