<svg xmlns="http://www.w3.org/2000/svg" xmlns:xlink="http://www.w3.org/1999/xlink" width="750" zoomAndPan="magnify" viewBox="0 0 562.5 374.999991" height="500" preserveAspectRatio="xMidYMid meet" version="1.0"><defs><g/><clipPath id="0fb25a79d3"><path d="M 147.738281 26.34375 L 414.738281 26.34375 L 414.738281 219.84375 L 147.738281 219.84375 Z M 147.738281 26.34375 " clip-rule="nonzero"/></clipPath></defs><g clip-path="url(#0fb25a79d3)"><path fill="#f4f6fc" d="M 396.117188 157.472656 L 396.117188 46.796875 C 396.117188 45.765625 395.285156 44.933594 394.257812 44.933594 L 168.222656 44.933594 C 167.195312 44.933594 166.363281 45.765625 166.363281 46.796875 L 166.363281 157.472656 C 166.363281 158.5 167.195312 159.332031 168.222656 159.332031 L 286.136719 159.332031 C 286.40625 159.332031 286.667969 159.390625 286.914062 159.503906 L 353.457031 190.207031 C 354.691406 190.777344 356.097656 189.878906 356.097656 188.519531 L 356.097656 161.191406 C 356.097656 160.164062 356.933594 159.332031 357.957031 159.332031 L 394.257812 159.332031 C 395.285156 159.332031 396.117188 158.5 396.117188 157.472656 Z M 149.621094 26.339844 L 412.859375 26.339844 C 413.886719 26.339844 414.71875 27.171875 414.71875 28.199219 L 414.71875 176.066406 C 414.71875 177.09375 413.886719 177.925781 412.859375 177.925781 L 376.5625 177.925781 C 375.535156 177.925781 374.699219 178.761719 374.699219 179.789062 L 374.699219 217.585938 C 374.699219 218.941406 373.292969 219.839844 372.058594 219.273438 L 282.828125 178.097656 C 282.585938 177.984375 282.316406 177.925781 282.050781 177.925781 L 149.621094 177.925781 C 148.59375 177.925781 147.757812 177.09375 147.757812 176.066406 L 147.757812 28.199219 C 147.757812 27.171875 148.59375 26.339844 149.621094 26.339844 Z M 206.382812 113.292969 L 206.382812 140.449219 C 206.382812 141.476562 205.546875 142.308594 204.519531 142.308594 L 189.640625 142.308594 C 188.613281 142.308594 187.777344 141.476562 187.777344 140.449219 L 187.777344 63.816406 C 187.777344 62.789062 188.613281 61.957031 189.640625 61.957031 L 204.519531 61.957031 C 205.546875 61.957031 206.382812 62.789062 206.382812 63.816406 L 206.382812 90.976562 C 206.382812 92.003906 207.214844 92.835938 208.242188 92.835938 L 354.238281 92.835938 C 355.265625 92.835938 356.097656 92.003906 356.097656 90.976562 L 356.097656 63.816406 C 356.097656 62.789062 356.933594 61.957031 357.957031 61.957031 L 372.839844 61.957031 C 373.867188 61.957031 374.699219 62.789062 374.699219 63.816406 L 374.699219 140.449219 C 374.699219 141.476562 373.867188 142.308594 372.839844 142.308594 L 357.957031 142.308594 C 356.933594 142.308594 356.097656 141.476562 356.097656 140.449219 L 356.097656 113.292969 C 356.097656 112.265625 355.265625 111.429688 354.238281 111.429688 L 208.242188 111.429688 C 207.214844 111.429688 206.382812 112.265625 206.382812 113.292969 " fill-opacity="1" fill-rule="nonzero"/></g><g fill="#f4f6fc" fill-opacity="1"><g transform="translate(94.851518, 306.857492)"><g><path d="M 50.4375 -68.484375 L 67.109375 -68.484375 L 67.109375 0 L 50.4375 0 L 50.4375 -28.390625 L 24 -28.390625 L 24 0 L 7.3125 0 L 7.3125 -68.484375 L 24 -68.484375 L 24 -41.0625 L 50.4375 -41.0625 Z M 50.4375 -68.484375 "/></g></g></g><g fill="#f4f6fc" fill-opacity="1"><g transform="translate(164.978501, 306.857492)"><g><path d="M 22.53125 -60.578125 C 20.644531 -58.691406 18.335938 -57.75 15.609375 -57.75 C 12.878906 -57.75 10.570312 -58.691406 8.6875 -60.578125 C 6.800781 -62.460938 5.859375 -64.785156 5.859375 -67.546875 C 5.859375 -70.316406 6.800781 -72.644531 8.6875 -74.53125 C 10.570312 -76.414062 12.878906 -77.359375 15.609375 -77.359375 C 18.335938 -77.359375 20.644531 -76.414062 22.53125 -74.53125 C 24.414062 -72.644531 25.359375 -70.316406 25.359375 -67.546875 C 25.359375 -64.785156 24.414062 -62.460938 22.53125 -60.578125 Z M 7.3125 0 L 7.3125 -54.4375 L 24 -54.4375 L 24 0 Z M 7.3125 0 "/></g></g></g><g fill="#f4f6fc" fill-opacity="1"><g transform="translate(191.994787, 306.857492)"><g><path d="M 13.5 -9.3125 C 6.707031 -15.914062 3.3125 -24.289062 3.3125 -34.4375 C 3.3125 -44.582031 6.707031 -52.953125 13.5 -59.546875 C 20.300781 -66.148438 28.613281 -69.453125 38.4375 -69.453125 C 46.039062 -69.453125 52.800781 -67.4375 58.71875 -63.40625 C 64.632812 -59.375 68.765625 -53.78125 71.109375 -46.625 L 51.21875 -46.625 C 48.613281 -51.632812 44.445312 -54.140625 38.71875 -54.140625 C 33 -54.140625 28.5 -52.347656 25.21875 -48.765625 C 21.9375 -45.191406 20.296875 -40.410156 20.296875 -34.421875 C 20.296875 -28.441406 21.9375 -23.664062 25.21875 -20.09375 C 28.5 -16.519531 33 -14.734375 38.71875 -14.734375 C 44.445312 -14.734375 48.613281 -17.234375 51.21875 -22.234375 L 71.109375 -22.234375 C 68.765625 -15.085938 64.632812 -9.5 58.71875 -5.46875 C 52.800781 -1.4375 46.039062 0.578125 38.4375 0.578125 C 28.613281 0.578125 20.300781 -2.71875 13.5 -9.3125 Z M 13.5 -9.3125 "/></g></g></g><g fill="#f4f6fc" fill-opacity="1"><g transform="translate(262.219289, 306.857492)"><g><path d="M 24 -72.1875 L 24 -46.4375 C 27.445312 -52.15625 32.941406 -55.015625 40.484375 -55.015625 C 46.722656 -55.015625 51.773438 -52.929688 55.640625 -48.765625 C 59.515625 -44.609375 61.453125 -38.953125 61.453125 -31.796875 L 61.453125 0 L 44.875 0 L 44.875 -29.5625 C 44.875 -33.070312 43.945312 -35.785156 42.09375 -37.703125 C 40.238281 -39.617188 37.6875 -40.578125 34.4375 -40.578125 C 31.1875 -40.578125 28.632812 -39.617188 26.78125 -37.703125 C 24.925781 -35.785156 24 -33.070312 24 -29.5625 L 24 0 L 7.3125 0 L 7.3125 -72.1875 Z M 24 -72.1875 "/></g></g></g><g fill="#f4f6fc" fill-opacity="1"><g transform="translate(326.201517, 306.857492)"><g><path d="M 40.484375 -17.265625 C 42.890625 -19.609375 44.09375 -22.925781 44.09375 -27.21875 C 44.09375 -31.507812 42.890625 -34.804688 40.484375 -37.109375 C 38.078125 -39.421875 35.3125 -40.578125 32.1875 -40.578125 C 29.070312 -40.578125 26.3125 -39.40625 23.90625 -37.0625 C 21.5 -34.726562 20.296875 -31.414062 20.296875 -27.125 C 20.296875 -22.832031 21.5 -19.53125 23.90625 -17.21875 C 26.3125 -14.90625 29.070312 -13.75 32.1875 -13.75 C 35.3125 -13.75 38.078125 -14.921875 40.484375 -17.265625 Z M 10.53125 -7.109375 C 5.71875 -12.316406 3.3125 -18.984375 3.3125 -27.109375 C 3.3125 -35.242188 5.71875 -41.925781 10.53125 -47.15625 C 15.34375 -52.394531 21.210938 -55.015625 28.140625 -55.015625 C 35.066406 -55.015625 40.382812 -52.445312 44.09375 -47.3125 L 44.09375 -54.4375 L 60.765625 -54.4375 L 60.765625 0 L 44.09375 0 L 44.09375 -7.90625 C 40.0625 -2.175781 34.660156 0.6875 27.890625 0.6875 C 21.128906 0.6875 15.34375 -1.910156 10.53125 -7.109375 Z M 10.53125 -7.109375 "/></g></g></g><g fill="#f4f6fc" fill-opacity="1"><g transform="translate(389.988695, 306.857492)"><g><path d="M 30.4375 -14.140625 L 36.390625 -14.140625 L 36.390625 0 L 27.890625 0 C 21.785156 0 17.054688 -1.347656 13.703125 -4.046875 C 10.359375 -6.742188 8.6875 -11.378906 8.6875 -17.953125 L 8.6875 -40.578125 L 3.609375 -40.578125 L 3.609375 -54.4375 L 8.6875 -54.4375 L 8.6875 -67.703125 L 25.359375 -67.703125 L 25.359375 -54.4375 L 36.28125 -54.4375 L 36.28125 -40.578125 L 25.359375 -40.578125 L 25.359375 -17.953125 C 25.359375 -15.410156 27.050781 -14.140625 30.4375 -14.140625 Z M 30.4375 -14.140625 "/></g></g></g><g fill="#f4f6fc" fill-opacity="1"><g transform="translate(426.173328, 306.857492)"><g><path d="M 31.125 -9.109375 C 31.125 -6.546875 30.242188 -4.382812 28.484375 -2.625 C 26.722656 -0.875 24.554688 0 21.984375 0 C 19.421875 0 17.257812 -0.875 15.5 -2.625 C 13.75 -4.382812 12.875 -6.546875 12.875 -9.109375 C 12.875 -11.679688 13.75 -13.84375 15.5 -15.59375 C 17.257812 -17.351562 19.421875 -18.234375 21.984375 -18.234375 C 24.554688 -18.234375 26.722656 -17.351562 28.484375 -15.59375 C 30.242188 -13.84375 31.125 -11.679688 31.125 -9.109375 Z M 14.53125 -24.578125 L 12.578125 -73.359375 L 30.625 -73.359375 L 28.671875 -24.578125 Z M 14.53125 -24.578125 "/></g></g></g><g fill="#f4f6fc" fill-opacity="1"><g transform="translate(163.139091, 345.040357)"><g><path d="M 6.21875 0.15625 C 5.15625 0.15625 4.128906 -0.00390625 3.140625 -0.328125 C 2.160156 -0.660156 1.390625 -1.085938 0.828125 -1.609375 L 1.578125 -3.1875 C 2.109375 -2.695312 2.789062 -2.300781 3.625 -2 C 4.46875 -1.695312 5.332031 -1.546875 6.21875 -1.546875 C 7.382812 -1.546875 8.253906 -1.742188 8.828125 -2.140625 C 9.410156 -2.535156 9.703125 -3.0625 9.703125 -3.71875 C 9.703125 -4.207031 9.546875 -4.601562 9.234375 -4.90625 C 8.921875 -5.207031 8.53125 -5.4375 8.0625 -5.59375 C 7.601562 -5.757812 6.953125 -5.941406 6.109375 -6.140625 C 5.046875 -6.398438 4.1875 -6.65625 3.53125 -6.90625 C 2.882812 -7.164062 2.328125 -7.554688 1.859375 -8.078125 C 1.398438 -8.609375 1.171875 -9.328125 1.171875 -10.234375 C 1.171875 -10.984375 1.367188 -11.660156 1.765625 -12.265625 C 2.160156 -12.867188 2.757812 -13.351562 3.5625 -13.71875 C 4.363281 -14.082031 5.363281 -14.265625 6.5625 -14.265625 C 7.394531 -14.265625 8.210938 -14.15625 9.015625 -13.9375 C 9.828125 -13.71875 10.519531 -13.410156 11.09375 -13.015625 L 10.4375 -11.40625 C 9.84375 -11.78125 9.207031 -12.0625 8.53125 -12.25 C 7.863281 -12.445312 7.207031 -12.546875 6.5625 -12.546875 C 5.425781 -12.546875 4.570312 -12.335938 4 -11.921875 C 3.425781 -11.503906 3.140625 -10.96875 3.140625 -10.3125 C 3.140625 -9.832031 3.300781 -9.441406 3.625 -9.140625 C 3.945312 -8.835938 4.34375 -8.597656 4.8125 -8.421875 C 5.289062 -8.253906 5.941406 -8.078125 6.765625 -7.890625 C 7.828125 -7.640625 8.679688 -7.382812 9.328125 -7.125 C 9.972656 -6.875 10.523438 -6.484375 10.984375 -5.953125 C 11.453125 -5.429688 11.6875 -4.726562 11.6875 -3.84375 C 11.6875 -3.101562 11.484375 -2.425781 11.078125 -1.8125 C 10.671875 -1.207031 10.054688 -0.726562 9.234375 -0.375 C 8.421875 -0.0195312 7.414062 0.15625 6.21875 0.15625 Z M 6.21875 0.15625 "/></g></g></g><g fill="#f4f6fc" fill-opacity="1"><g transform="translate(179.672589, 345.040357)"><g><path d="M 8.484375 0.15625 C 7.054688 0.15625 5.769531 -0.15625 4.625 -0.78125 C 3.488281 -1.40625 2.59375 -2.265625 1.9375 -3.359375 C 1.289062 -4.460938 0.96875 -5.691406 0.96875 -7.046875 C 0.96875 -8.398438 1.289062 -9.628906 1.9375 -10.734375 C 2.59375 -11.835938 3.488281 -12.703125 4.625 -13.328125 C 5.769531 -13.953125 7.054688 -14.265625 8.484375 -14.265625 C 9.890625 -14.265625 11.160156 -13.953125 12.296875 -13.328125 C 13.441406 -12.703125 14.335938 -11.84375 14.984375 -10.75 C 15.628906 -9.65625 15.953125 -8.421875 15.953125 -7.046875 C 15.953125 -5.679688 15.628906 -4.453125 14.984375 -3.359375 C 14.335938 -2.265625 13.441406 -1.40625 12.296875 -0.78125 C 11.160156 -0.15625 9.890625 0.15625 8.484375 0.15625 Z M 8.484375 -1.625 C 9.515625 -1.625 10.441406 -1.859375 11.265625 -2.328125 C 12.085938 -2.804688 12.738281 -3.457031 13.21875 -4.28125 C 13.695312 -5.101562 13.9375 -6.023438 13.9375 -7.046875 C 13.9375 -8.066406 13.695312 -8.988281 13.21875 -9.8125 C 12.738281 -10.644531 12.085938 -11.296875 11.265625 -11.765625 C 10.441406 -12.234375 9.515625 -12.46875 8.484375 -12.46875 C 7.441406 -12.46875 6.5 -12.234375 5.65625 -11.765625 C 4.820312 -11.296875 4.164062 -10.644531 3.6875 -9.8125 C 3.21875 -8.988281 2.984375 -8.066406 2.984375 -7.046875 C 2.984375 -6.023438 3.21875 -5.101562 3.6875 -4.28125 C 4.164062 -3.457031 4.820312 -2.804688 5.65625 -2.328125 C 6.5 -1.859375 7.441406 -1.625 8.484375 -1.625 Z M 8.484375 -1.625 "/></g></g></g><g fill="#f4f6fc" fill-opacity="1"><g transform="translate(200.616104, 345.040357)"><g><path d="M 8.421875 0.15625 C 7.003906 0.15625 5.726562 -0.15625 4.59375 -0.78125 C 3.46875 -1.40625 2.582031 -2.265625 1.9375 -3.359375 C 1.289062 -4.453125 0.96875 -5.679688 0.96875 -7.046875 C 0.96875 -8.421875 1.289062 -9.65625 1.9375 -10.75 C 2.582031 -11.84375 3.472656 -12.703125 4.609375 -13.328125 C 5.753906 -13.953125 7.03125 -14.265625 8.4375 -14.265625 C 9.539062 -14.265625 10.546875 -14.078125 11.453125 -13.703125 C 12.367188 -13.335938 13.148438 -12.789062 13.796875 -12.0625 L 12.484375 -10.796875 C 11.421875 -11.910156 10.097656 -12.46875 8.515625 -12.46875 C 7.472656 -12.46875 6.523438 -12.234375 5.671875 -11.765625 C 4.828125 -11.296875 4.164062 -10.644531 3.6875 -9.8125 C 3.21875 -8.988281 2.984375 -8.066406 2.984375 -7.046875 C 2.984375 -6.023438 3.21875 -5.101562 3.6875 -4.28125 C 4.164062 -3.457031 4.828125 -2.804688 5.671875 -2.328125 C 6.523438 -1.859375 7.472656 -1.625 8.515625 -1.625 C 10.085938 -1.625 11.410156 -2.191406 12.484375 -3.328125 L 13.796875 -2.046875 C 13.148438 -1.328125 12.367188 -0.78125 11.453125 -0.40625 C 10.535156 -0.03125 9.523438 0.15625 8.421875 0.15625 Z M 8.421875 0.15625 "/></g></g></g><g fill="#f4f6fc" fill-opacity="1"><g transform="translate(219.203596, 345.040357)"><g><path d="M 2.109375 -14.09375 L 4.125 -14.09375 L 4.125 0 L 2.109375 0 Z M 2.109375 -14.09375 "/></g></g></g><g fill="#f4f6fc" fill-opacity="1"><g transform="translate(229.474497, 345.040357)"><g><path d="M 11.09375 -3.53125 L 3.609375 -3.53125 L 2.046875 0 L -0.015625 0 L 6.359375 -14.09375 L 8.359375 -14.09375 L 14.765625 0 L 12.640625 0 Z M 10.390625 -5.140625 L 7.34375 -12.046875 L 4.3125 -5.140625 Z M 10.390625 -5.140625 "/></g></g></g><g fill="#f4f6fc" fill-opacity="1"><g transform="translate(248.243204, 345.040357)"><g><path d="M 2.109375 -14.09375 L 4.125 -14.09375 L 4.125 -1.75 L 11.765625 -1.75 L 11.765625 0 L 2.109375 0 Z M 2.109375 -14.09375 "/></g></g></g><g fill="#f4f6fc" fill-opacity="1"><g transform="translate(264.23301, 345.040357)"><g/></g></g><g fill="#f4f6fc" fill-opacity="1"><g transform="translate(273.678281, 345.040357)"><g><path d="M 15.1875 0 L 15.171875 -10.265625 L 10.078125 -1.71875 L 9.140625 -1.71875 L 4.046875 -10.21875 L 4.046875 0 L 2.109375 0 L 2.109375 -14.09375 L 3.765625 -14.09375 L 9.640625 -4.1875 L 15.453125 -14.09375 L 17.09375 -14.09375 L 17.125 0 Z M 15.1875 0 "/></g></g></g><g fill="#f4f6fc" fill-opacity="1"><g transform="translate(296.937531, 345.040357)"><g><path d="M 12.34375 -1.75 L 12.34375 0 L 2.109375 0 L 2.109375 -14.09375 L 12.0625 -14.09375 L 12.0625 -12.34375 L 4.125 -12.34375 L 4.125 -8.015625 L 11.203125 -8.015625 L 11.203125 -6.296875 L 4.125 -6.296875 L 4.125 -1.75 Z M 12.34375 -1.75 "/></g></g></g><g fill="#f4f6fc" fill-opacity="1"><g transform="translate(314.457758, 345.040357)"><g><path d="M 6.21875 0.15625 C 5.15625 0.15625 4.128906 -0.00390625 3.140625 -0.328125 C 2.160156 -0.660156 1.390625 -1.085938 0.828125 -1.609375 L 1.578125 -3.1875 C 2.109375 -2.695312 2.789062 -2.300781 3.625 -2 C 4.46875 -1.695312 5.332031 -1.546875 6.21875 -1.546875 C 7.382812 -1.546875 8.253906 -1.742188 8.828125 -2.140625 C 9.410156 -2.535156 9.703125 -3.0625 9.703125 -3.71875 C 9.703125 -4.207031 9.546875 -4.601562 9.234375 -4.90625 C 8.921875 -5.207031 8.53125 -5.4375 8.0625 -5.59375 C 7.601562 -5.757812 6.953125 -5.941406 6.109375 -6.140625 C 5.046875 -6.398438 4.1875 -6.65625 3.53125 -6.90625 C 2.882812 -7.164062 2.328125 -7.554688 1.859375 -8.078125 C 1.398438 -8.609375 1.171875 -9.328125 1.171875 -10.234375 C 1.171875 -10.984375 1.367188 -11.660156 1.765625 -12.265625 C 2.160156 -12.867188 2.757812 -13.351562 3.5625 -13.71875 C 4.363281 -14.082031 5.363281 -14.265625 6.5625 -14.265625 C 7.394531 -14.265625 8.210938 -14.15625 9.015625 -13.9375 C 9.828125 -13.71875 10.519531 -13.410156 11.09375 -13.015625 L 10.4375 -11.40625 C 9.84375 -11.78125 9.207031 -12.0625 8.53125 -12.25 C 7.863281 -12.445312 7.207031 -12.546875 6.5625 -12.546875 C 5.425781 -12.546875 4.570312 -12.335938 4 -11.921875 C 3.425781 -11.503906 3.140625 -10.96875 3.140625 -10.3125 C 3.140625 -9.832031 3.300781 -9.441406 3.625 -9.140625 C 3.945312 -8.835938 4.34375 -8.597656 4.8125 -8.421875 C 5.289062 -8.253906 5.941406 -8.078125 6.765625 -7.890625 C 7.828125 -7.640625 8.679688 -7.382812 9.328125 -7.125 C 9.972656 -6.875 10.523438 -6.484375 10.984375 -5.953125 C 11.453125 -5.429688 11.6875 -4.726562 11.6875 -3.84375 C 11.6875 -3.101562 11.484375 -2.425781 11.078125 -1.8125 C 10.671875 -1.207031 10.054688 -0.726562 9.234375 -0.375 C 8.421875 -0.0195312 7.414062 0.15625 6.21875 0.15625 Z M 6.21875 0.15625 "/></g></g></g><g fill="#f4f6fc" fill-opacity="1"><g transform="translate(330.991253, 345.040357)"><g><path d="M 6.21875 0.15625 C 5.15625 0.15625 4.128906 -0.00390625 3.140625 -0.328125 C 2.160156 -0.660156 1.390625 -1.085938 0.828125 -1.609375 L 1.578125 -3.1875 C 2.109375 -2.695312 2.789062 -2.300781 3.625 -2 C 4.46875 -1.695312 5.332031 -1.546875 6.21875 -1.546875 C 7.382812 -1.546875 8.253906 -1.742188 8.828125 -2.140625 C 9.410156 -2.535156 9.703125 -3.0625 9.703125 -3.71875 C 9.703125 -4.207031 9.546875 -4.601562 9.234375 -4.90625 C 8.921875 -5.207031 8.53125 -5.4375 8.0625 -5.59375 C 7.601562 -5.757812 6.953125 -5.941406 6.109375 -6.140625 C 5.046875 -6.398438 4.1875 -6.65625 3.53125 -6.90625 C 2.882812 -7.164062 2.328125 -7.554688 1.859375 -8.078125 C 1.398438 -8.609375 1.171875 -9.328125 1.171875 -10.234375 C 1.171875 -10.984375 1.367188 -11.660156 1.765625 -12.265625 C 2.160156 -12.867188 2.757812 -13.351562 3.5625 -13.71875 C 4.363281 -14.082031 5.363281 -14.265625 6.5625 -14.265625 C 7.394531 -14.265625 8.210938 -14.15625 9.015625 -13.9375 C 9.828125 -13.71875 10.519531 -13.410156 11.09375 -13.015625 L 10.4375 -11.40625 C 9.84375 -11.78125 9.207031 -12.0625 8.53125 -12.25 C 7.863281 -12.445312 7.207031 -12.546875 6.5625 -12.546875 C 5.425781 -12.546875 4.570312 -12.335938 4 -11.921875 C 3.425781 -11.503906 3.140625 -10.96875 3.140625 -10.3125 C 3.140625 -9.832031 3.300781 -9.441406 3.625 -9.140625 C 3.945312 -8.835938 4.34375 -8.597656 4.8125 -8.421875 C 5.289062 -8.253906 5.941406 -8.078125 6.765625 -7.890625 C 7.828125 -7.640625 8.679688 -7.382812 9.328125 -7.125 C 9.972656 -6.875 10.523438 -6.484375 10.984375 -5.953125 C 11.453125 -5.429688 11.6875 -4.726562 11.6875 -3.84375 C 11.6875 -3.101562 11.484375 -2.425781 11.078125 -1.8125 C 10.671875 -1.207031 10.054688 -0.726562 9.234375 -0.375 C 8.421875 -0.0195312 7.414062 0.15625 6.21875 0.15625 Z M 6.21875 0.15625 "/></g></g></g><g fill="#f4f6fc" fill-opacity="1"><g transform="translate(347.524747, 345.040357)"><g><path d="M 11.09375 -3.53125 L 3.609375 -3.53125 L 2.046875 0 L -0.015625 0 L 6.359375 -14.09375 L 8.359375 -14.09375 L 14.765625 0 L 12.640625 0 Z M 10.390625 -5.140625 L 7.34375 -12.046875 L 4.3125 -5.140625 Z M 10.390625 -5.140625 "/></g></g></g><g fill="#f4f6fc" fill-opacity="1"><g transform="translate(366.293454, 345.040357)"><g><path d="M 11.890625 -7.125 L 13.8125 -7.125 L 13.8125 -1.625 C 13.113281 -1.050781 12.300781 -0.609375 11.375 -0.296875 C 10.445312 0.00390625 9.484375 0.15625 8.484375 0.15625 C 7.054688 0.15625 5.769531 -0.15625 4.625 -0.78125 C 3.488281 -1.40625 2.59375 -2.265625 1.9375 -3.359375 C 1.289062 -4.453125 0.96875 -5.679688 0.96875 -7.046875 C 0.96875 -8.421875 1.289062 -9.65625 1.9375 -10.75 C 2.59375 -11.851562 3.492188 -12.710938 4.640625 -13.328125 C 5.785156 -13.953125 7.078125 -14.265625 8.515625 -14.265625 C 9.648438 -14.265625 10.675781 -14.078125 11.59375 -13.703125 C 12.507812 -13.335938 13.289062 -12.796875 13.9375 -12.078125 L 12.6875 -10.828125 C 11.5625 -11.921875 10.195312 -12.46875 8.59375 -12.46875 C 7.519531 -12.46875 6.554688 -12.234375 5.703125 -11.765625 C 4.859375 -11.304688 4.191406 -10.660156 3.703125 -9.828125 C 3.222656 -9.003906 2.984375 -8.078125 2.984375 -7.046875 C 2.984375 -6.023438 3.222656 -5.101562 3.703125 -4.28125 C 4.191406 -3.457031 4.859375 -2.804688 5.703125 -2.328125 C 6.554688 -1.859375 7.515625 -1.625 8.578125 -1.625 C 9.835938 -1.625 10.941406 -1.925781 11.890625 -2.53125 Z M 11.890625 -7.125 "/></g></g></g><g fill="#f4f6fc" fill-opacity="1"><g transform="translate(385.867647, 345.040357)"><g><path d="M 12.34375 -1.75 L 12.34375 0 L 2.109375 0 L 2.109375 -14.09375 L 12.0625 -14.09375 L 12.0625 -12.34375 L 4.125 -12.34375 L 4.125 -8.015625 L 11.203125 -8.015625 L 11.203125 -6.296875 L 4.125 -6.296875 L 4.125 -1.75 Z M 12.34375 -1.75 "/></g></g></g></svg>