<svg xmlns="http://www.w3.org/2000/svg" xmlns:xlink="http://www.w3.org/1999/xlink" width="100" zoomAndPan="magnify" viewBox="0 0 75 74.999997" height="100" preserveAspectRatio="xMidYMid meet" version="1.0"><defs><clipPath id="b5638b726d"><path d="M 0 3.75 L 75 3.75 L 75 71.25 L 0 71.25 Z M 0 3.75 " clip-rule="nonzero"/></clipPath></defs><g clip-path="url(#b5638b726d)"><path fill="#000000" d="M 65.625 3.75 L 9.375 3.75 C 4.207031 3.75 0 7.953125 0 13.125 L 0 50.625 C 0 55.796875 4.207031 60 9.375 60 L 18.75 60 L 18.75 69.375 C 18.75 70.039062 19.097656 70.648438 19.667969 70.988281 C 19.960938 71.164062 20.296875 71.25 20.625 71.25 C 20.9375 71.25 21.242188 71.171875 21.519531 71.015625 C 21.519531 71.015625 38.808594 61.585938 41.726562 60 L 65.625 60 C 70.792969 60 75 55.796875 75 50.625 L 75 13.125 C 75 7.953125 70.792969 3.75 65.625 3.75 Z M 58.125 45 L 16.875 45 C 15.839844 45 15 44.160156 15 43.125 C 15 42.089844 15.839844 41.25 16.875 41.25 L 58.125 41.25 C 59.160156 41.25 60 42.089844 60 43.125 C 60 44.160156 59.160156 45 58.125 45 Z M 58.125 33.75 L 16.875 33.75 C 15.839844 33.75 15 32.910156 15 31.875 C 15 30.839844 15.839844 30 16.875 30 L 58.125 30 C 59.160156 30 60 30.839844 60 31.875 C 60 32.910156 59.160156 33.75 58.125 33.75 Z M 58.125 22.5 L 16.875 22.5 C 15.839844 22.5 15 21.660156 15 20.625 C 15 19.589844 15.839844 18.75 16.875 18.75 L 58.125 18.75 C 59.160156 18.75 60 19.589844 60 20.625 C 60 21.660156 59.160156 22.5 58.125 22.5 Z M 58.125 22.5 " fill-opacity="1" fill-rule="nonzero"/></g></svg>