<svg xmlns="http://www.w3.org/2000/svg" xmlns:xlink="http://www.w3.org/1999/xlink" width="100" zoomAndPan="magnify" viewBox="0 0 75 74.999997" height="100" preserveAspectRatio="xMidYMid meet" version="1.0"><defs><clipPath id="5f6a6ea6b5"><path d="M 0.59375 0 L 74 0 L 74 73 L 0.59375 73 Z M 0.59375 0 " clip-rule="nonzero"/></clipPath></defs><g clip-path="url(#5f6a6ea6b5)"><path fill="#000000" d="M 71.875 63.257812 L 60.265625 51.644531 C 63.96875 46.359375 66.148438 39.925781 66.160156 32.984375 C 66.1875 15.203125 51.84375 0.589844 34.066406 0.300781 C 15.613281 0.00390625 0.597656 15.023438 0.894531 33.472656 C 1.183594 51.25 15.796875 65.59375 33.574219 65.566406 C 40.519531 65.558594 46.953125 63.378906 52.238281 59.671875 C 52.238281 59.671875 63.851562 71.285156 63.851562 71.285156 C 66.066406 73.5 69.660156 73.5 71.875 71.285156 C 74.09375 69.066406 74.09375 65.472656 71.875 63.257812 Z M 33.527344 54.21875 C 21.789062 54.21875 12.242188 44.667969 12.242188 32.933594 C 12.242188 21.195312 21.789062 11.648438 33.527344 11.648438 C 45.261719 11.648438 54.808594 21.195312 54.808594 32.933594 C 54.808594 44.667969 45.261719 54.21875 33.527344 54.21875 Z M 33.527344 54.21875 " fill-opacity="1" fill-rule="nonzero"/></g></svg>